<?xml version="1.0" encoding="UTF-8"?>
<!DOCTYPE svg PUBLIC "-//W3C//DTD SVG 1.1//EN" "http://www.w3.org/Graphics/SVG/1.1/DTD/svg11.dtd">
<!-- Creator: CorelDRAW 2021.5 -->
<svg xmlns="http://www.w3.org/2000/svg" xml:space="preserve" width="211.474mm" height="45.9471mm" version="1.1" style="shape-rendering:geometricPrecision; text-rendering:geometricPrecision; image-rendering:optimizeQuality; fill-rule:evenodd; clip-rule:evenodd"
viewBox="0 0 20520.57 4458.51"
 xmlns:xlink="http://www.w3.org/1999/xlink"
 xmlns:xodm="http://www.corel.com/coreldraw/odm/2003">
 <defs>
  <style type="text/css">
   <![CDATA[
    .fil2 {fill:#2B4484}
    .fil3 {fill:#FEFEFE;fill-rule:nonzero}
    .fil4 {fill:#727271;fill-rule:nonzero}
    .fil0 {fill:#2B4484;fill-rule:nonzero}
    .fil1 {fill:#03BECD;fill-rule:nonzero}
   ]]>
  </style>
 </defs>
 <g id="Layer_x0020_1">
  <metadata id="CorelCorpID_0Corel-Layer"/>
  <g id="_1648858355152">
   <g>
    <g>
     <path class="fil0" d="M3074.31 3062.62c-581.8,-249.38 -1046.02,-511.91 -1384.95,-724.35 -485.12,-304.06 -924.01,-583.61 -1373.4,-1083.65 -57.66,-64.16 -111.17,-127.25 -161.03,-188.76 -98.92,-153.12 -174.04,-324.71 -150.61,-507.5 39.4,-307.34 266.67,-494.2 538.08,-558.36 -118.06,51.46 -220.16,133.93 -295.48,258.75 -109.39,181.34 -110.81,389.92 -10.03,563.94 97.5,209.65 265.05,366.45 444.03,509.21 306.33,244.35 651.22,426.87 1011.75,575.71 560.84,231.54 1144.31,383.23 1751.03,420.84 343.39,21.28 688.94,9.74 1017.28,-118.91 133.07,-52.13 308.76,-158.45 376.95,-350.13 83.18,-233.71 -30.52,-530.37 -284.45,-762.7 89.73,60 308.09,224.51 391.09,512.86 24.11,83.54 61.21,219.12 11.04,374.07 -49.36,152.45 -154.28,242.3 -223.42,293.54 -196.47,145.64 -426.17,206.91 -664.17,247.57 -55.83,9.56 -123.62,1.02 -170.07,40.23 -26.4,22.27 -35.44,50.68 -38.55,58.84 -96.21,253.35 -698.46,1839.21 -1187.56,1834.68 -65.63,-0.61 -113.97,-29.7 -131.11,-40.31 -333.8,-206.74 -51.02,-1086.96 -332.83,-1326.26 -26.63,-22.62 -108.17,-91.84 -206.75,-80.69 -57.36,6.5 -100.52,37.94 -131.11,65.55 -221.66,200.01 -166.75,542.94 -363.09,645.49 -88.73,46.32 -185.49,20.93 -226.93,10.06 -142.73,-37.4 -250.54,-159.34 -394.56,-475.73 -147.48,-323.92 -212.67,-594.98 -256.28,-761.93 -76.48,-292.72 -126.15,-592.36 -189.27,-888.66 258.83,213.96 560.36,436.53 907.55,651.11 640.93,396.13 1243.29,645.46 1726.86,805.48z"/>
     <path class="fil1" d="M4044.33 1916.18c-21,152.02 -58.07,171.43 -213.76,171.53 -148.68,0.1 -298.63,12.65 -445.62,-2.73 -263.65,-27.59 -528.66,-57.42 -787.46,-112.66 -448.9,-95.82 -875.15,-259.23 -1276.8,-484.36 -263.03,-147.45 -512.24,-313.83 -711.72,-542.33 -64.98,-74.42 -156.94,-140.46 -156.18,-256.07 1.51,-237.23 199.61,-481.89 484.95,-493.77 165.59,-6.81 269.23,34.61 633.79,205.27 174.42,81.55 422.34,194.59 728.06,323.67 -94.98,59.44 -212.82,121.01 -353.39,170.63 -344.9,121.7 -653.92,110.52 -842.13,86.91 381.36,99.79 667.73,58.23 832.95,16.87 355.68,-89.04 646.32,-298.21 772.42,-395.12 191.63,-147.09 376.68,-303.3 598.89,-405.28 308.01,-141.39 608.33,-32.77 731.68,301.36 69.89,189.06 98.11,386.05 91.83,580.37 -9.11,279.3 -49.16,558.23 -87.51,835.7z"/>
     <path class="fil0" d="M1893.12 3492c-21.34,-5.51 -30.08,228.38 -205.4,356.71 -194.02,142.02 -465.56,62.13 -491.85,54.04 -179.2,-55.39 -269.41,-174.65 -275.64,-167.51 -8.98,10.24 156.44,280.78 432.38,313.48 157.14,18.53 335.35,-41.76 443.21,-173 132.27,-160.94 117.56,-378.52 97.29,-383.73z"/>
    </g>
    <path class="fil2" d="M965.92 3664.95c18.43,17.03 -39.18,23.77 -70.67,57.86 -31.5,34.09 -24.95,82.61 -43.38,65.59 -18.43,-17.02 -7.83,-58.45 23.67,-92.54 31.5,-34.09 71.96,-47.93 90.38,-30.91z"/>
    <path class="fil2" d="M1820.73 3439.57c-9.31,23.3 45.6,4.59 88.7,21.8 43.1,17.21 58.08,63.83 67.38,40.53 9.31,-23.3 -18.1,-56.14 -61.19,-73.35 -43.1,-17.21 -85.59,-12.28 -94.89,11.01z"/>
   </g>
   <g>
    <path class="fil3" d="M3603.45 718.11l-46.83 183.5c-5.44,21.36 -22.1,38.04 -43.47,43.49l-183.5 46.81 183.5 46.81c21.38,5.44 38.03,22.13 43.47,43.49l46.83 183.49 46.84 -183.49c5.45,-21.36 22.1,-38.05 43.41,-43.49l183.51 -46.81 -183.51 -46.81c-21.31,-5.45 -37.96,-22.13 -43.41,-43.49l-46.84 -183.5z"/>
    <path class="fil3" d="M3213.92 484.33l-33.09 129.76c-3.83,15.14 -15.66,26.95 -30.76,30.76l-129.77 33.1 129.77 33.17c15.1,3.81 26.93,15.62 30.76,30.76l33.09 129.76 33.15 -129.76c3.83,-15.14 15.67,-26.95 30.76,-30.76l129.78 -33.17 -129.78 -33.1c-15.09,-3.81 -26.93,-15.62 -30.76,-30.76l-33.15 -129.76z"/>
    <path class="fil3" d="M3556.73 1419.16l-19.77 77.56c-2.34,9.02 -9.39,16.06 -18.37,18.37l-77.59 19.79 77.59 19.8c8.98,2.31 16.03,9.35 18.37,18.37l19.77 77.55 19.81 -77.55c2.27,-9.01 9.33,-16.06 18.36,-18.37l77.54 -19.8 -77.54 -19.79c-9.02,-2.31 -16.09,-9.34 -18.36,-18.37l-19.81 -77.56z"/>
    <path class="fil3" d="M3831.31 1240.54l-10.73 42.14c-1.24,4.96 -5.08,8.77 -10.01,9.98l-42.11 10.75 42.11 10.78c4.93,1.25 8.77,5.07 10.01,9.98l10.73 42.14 10.74 -42.14c1.25,-4.9 5.08,-8.72 10.01,-9.98l42.11 -10.78 -42.11 -10.75c-4.93,-1.2 -8.76,-5.02 -10.01,-9.98l-10.74 -42.14z"/>
   </g>
  </g>
  <g id="_1648858357840">
   <path class="fil0" d="M5660.97 2427.77l274.12 0 0 -1453.06 325.06 0 0 -245.01 -924.24 0 0 245.01 325.06 0 0 1453.06zm714.24 0l276.54 0 0 -752.01 366.29 0 0 752.01 276.55 0 0 -1698.07 -276.55 0 0 701.05 -366.29 0 0 -701.05 -276.54 0 0 1698.07zm1109.64 0l815.07 0 0 -245.01 -538.53 0 0 -507 431.79 0 0 -245.01 -431.79 0 0 -456.05 538.53 0 0 -245.01 -815.07 0 0 1698.07zm1609.37 0l274.12 0 0 -1453.06 325.06 0 0 -245.01 -924.24 0 0 245.01 325.06 0 0 1453.06zm1136.33 24.26c293.52,0 456.06,-167.39 456.06,-456.06l0 -834.48c0,-291.1 -162.53,-456.05 -456.06,-456.05 -291.1,0 -453.62,164.95 -453.62,456.05l0 834.48c0,288.67 162.53,456.06 453.62,456.06zm0 -245.01c-114.01,0 -177.08,-65.5 -177.08,-196.5l0 -863.59c0,-133.41 63.07,-196.49 177.08,-196.49 114.02,0 179.52,63.07 179.52,196.49l0 863.59c0,131 -65.5,196.5 -179.52,196.5zm1053.85 245.01c293.52,0 456.06,-167.39 456.06,-456.06l0 -834.48c0,-291.1 -162.53,-456.05 -456.06,-456.05 -291.1,0 -453.62,164.95 -453.62,456.05l0 834.48c0,288.67 162.53,456.06 453.62,456.06zm0 -245.01c-114.01,0 -177.08,-65.5 -177.08,-196.5l0 -863.59c0,-133.41 63.07,-196.49 177.08,-196.49 114.02,0 179.52,63.07 179.52,196.49l0 863.59c0,131 -65.5,196.5 -179.52,196.5zm862.21 220.75l274.12 0 0 -1453.06 325.06 0 0 -245.01 -924.24 0 0 245.01 325.06 0 0 1453.06zm714.24 0l276.54 0 0 -752.01 366.29 0 0 752.01 276.55 0 0 -1698.07 -276.55 0 0 701.05 -366.29 0 0 -701.05 -276.54 0 0 1698.07zm1944.12 24.26c286.25,0 439.08,-164.96 439.08,-448.78l0 -201.34 -259.56 0 0 213.47c0,131 -65.5,196.5 -172.24,196.5 -106.73,0 -172.23,-65.5 -172.23,-196.5l0 -873.29c0,-130.99 65.5,-196.49 172.23,-196.49 106.74,0 172.24,65.5 172.24,196.49l0 162.53 259.56 0 0 -150.41c0,-283.82 -152.83,-448.77 -439.08,-448.77 -283.82,0 -441.49,164.95 -441.49,448.77l0 849.03c0,283.82 157.67,448.78 441.49,448.78zm1019.89 0c293.52,0 456.06,-167.39 456.06,-456.06l0 -834.48c0,-291.1 -162.53,-456.05 -456.06,-456.05 -291.1,0 -453.62,164.95 -453.62,456.05l0 834.48c0,288.67 162.53,456.06 453.62,456.06zm0 -245.01c-114.01,0 -177.08,-65.5 -177.08,-196.5l0 -863.59c0,-133.41 63.07,-196.49 177.08,-196.49 114.02,0 179.52,63.07 179.52,196.49l0 863.59c0,131 -65.5,196.5 -179.52,196.5zm622.06 220.75l276.54 0 0 -718.05 126.14 0c155.26,0 211.05,58.22 211.05,228.03l0 266.84c0,145.54 9.7,174.65 26.68,223.17l278.98 0c-26.68,-67.93 -31.54,-135.85 -31.54,-220.75l0 -252.28c0,-215.9 -58.22,-339.62 -206.2,-380.86l0 -7.28c138.28,-50.94 203.78,-162.53 203.78,-346.89l0 -82.48c0,-276.54 -138.28,-407.53 -443.93,-407.53l-441.49 0 0 1698.07zm276.54 -963.05l0 -490.01 160.1 0c121.29,0 172.24,58.22 172.24,191.64l0 97.04c0,145.54 -65.5,201.34 -201.35,201.34l-130.99 0zm787.01 963.05l247.43 0 0 -1271.13 409.96 1271.13 281.4 0 0 -1698.07 -249.87 0 0 1064.93 -344.47 -1064.93 -344.46 0 0 1698.07zm1129.05 0l815.07 0 0 -245.01 -538.53 0 0 -507 431.79 0 0 -245.01 -431.79 0 0 -456.05 538.53 0 0 -245.01 -815.07 0 0 1698.07zm944.69 0l276.54 0 0 -718.05 126.14 0c155.26,0 211.05,58.22 211.05,228.03l0 266.84c0,145.54 9.7,174.65 26.68,223.17l278.98 0c-26.68,-67.93 -31.54,-135.85 -31.54,-220.75l0 -252.28c0,-215.9 -58.22,-339.62 -206.2,-380.86l0 -7.28c138.28,-50.94 203.78,-162.53 203.78,-346.89l0 -82.48c0,-276.54 -138.28,-407.53 -443.93,-407.53l-441.49 0 0 1698.07zm276.54 -963.05l0 -490.01 160.1 0c121.29,0 172.24,58.22 172.24,191.64l0 97.04c0,145.54 -65.5,201.34 -201.35,201.34l-130.99 0z"/>
   <path class="fil4" d="M5802.63 3743.17l114.94 0 -133.76 -693.6 -152.6 0 -132.77 693.6 105.03 0 23.78 -134.75 152.59 0 22.79 134.75zm-158.54 -232.86l59.44 -343.83 59.45 343.83 -118.9 0zm792.31 232.86l99.08 0 0 -537.04 102.06 537.04 94.12 0 102.06 -537.04 0 537.04 107.01 0 0 -693.6 -159.53 0 -92.15 509.3 -93.13 -509.3 -159.53 0 0 693.6zm895.36 9.91c118.91,0 182.32,-68.37 182.32,-186.28l0 -517.23 -108.01 0 0 524.17c0,55.49 -25.75,79.27 -72.33,79.27 -46.57,0 -71.34,-23.78 -71.34,-79.27l0 -524.17 -112.96 0 0 517.23c0,117.91 62.42,186.28 182.32,186.28zm391.02 -9.91l323.01 0 0 -100.07 -210.05 0 0 -593.53 -112.96 0 0 693.6zm519.82 0l111.97 0 0 -593.53 132.77 0 0 -100.07 -377.52 0 0 100.07 132.77 0 0 593.53zm426.69 0l112.96 0 0 -693.6 -112.96 0 0 693.6zm485.14 9.91c118.9,0 184.3,-70.35 184.3,-182.32 0,-92.15 -29.73,-150.61 -138.72,-219.97 -85.22,-54.5 -111.97,-82.24 -111.97,-136.73 0,-49.55 25.76,-76.3 69.36,-76.3 46.57,0 70.35,28.73 70.35,79.27l0 26.75 106.02 0 0 -23.78c0,-111.96 -59.44,-180.33 -177.36,-180.33 -116.92,0 -180.33,69.36 -180.33,178.35 0,87.2 32.69,144.67 139.7,214.03 85.22,55.49 109.99,83.23 109.99,143.67 0,52.52 -28.73,79.27 -72.33,79.27 -47.57,0 -73.33,-28.73 -73.33,-78.28l0 -38.64 -106.02 0 0 34.68c0,110.97 61.43,180.33 180.34,180.33zm375.16 -9.91l112.96 0 0 -281.4 66.38 0c123.86,0 182.32,-59.45 182.32,-180.34l0 -51.53c0,-120.88 -58.46,-180.33 -182.32,-180.33l-179.34 0 0 693.6zm112.96 -380.49l0 -213.04 66.38 0c48.56,0 69.36,20.81 69.36,76.3l0 58.46c0,56.47 -20.8,78.28 -69.36,78.28l-66.38 0zm436.59 380.49l332.93 0 0 -100.07 -219.97 0 0 -207.09 176.37 0 0 -100.07 -176.37 0 0 -186.29 219.97 0 0 -100.07 -332.93 0 0 693.6zm692.22 9.91c116.93,0 179.35,-67.38 179.35,-183.31l0 -82.24 -106.02 0 0 87.2c0,53.51 -26.75,80.26 -70.35,80.26 -43.6,0 -70.35,-26.75 -70.35,-80.26l0 -356.71c0,-53.51 26.75,-80.26 70.35,-80.26 43.6,0 70.35,26.75 70.35,80.26l0 66.39 106.02 0 0 -61.43c0,-115.94 -62.42,-183.31 -179.35,-183.31 -115.93,0 -180.33,67.37 -180.33,183.31l0 346.8c0,115.93 64.4,183.31 180.33,183.31zm373.18 -9.91l112.96 0 0 -693.6 -112.96 0 0 693.6zm598.1 0l114.94 0 -133.76 -693.6 -152.6 0 -132.77 693.6 105.03 0 23.78 -134.75 152.59 0 22.79 134.75zm-158.54 -232.86l59.44 -343.83 59.45 343.83 -118.9 0zm453.44 232.86l323.01 0 0 -100.07 -210.05 0 0 -593.53 -112.96 0 0 693.6zm504.96 0l112.96 0 0 -693.6 -112.96 0 0 693.6zm427.67 0l111.97 0 0 -593.53 132.77 0 0 -100.07 -377.52 0 0 100.07 132.77 0 0 593.53zm548.56 0l111.97 0 0 -294.29 152.59 -399.31 -110.97 0 -92.15 263.57 -93.14 -263.57 -120.88 0 152.59 399.31 0 294.29zm780.42 0l186.28 0c121.88,0 182.32,-63.41 182.32,-183.31l0 -327.97c0,-118.91 -60.44,-182.32 -182.32,-182.32l-186.28 0 0 693.6zm112.96 -100.07l0 -493.46 71.34 0c48.55,0 72.33,22.79 72.33,79.27l0 334.92c0,56.47 -23.78,79.27 -72.33,79.27l-71.34 0zm459.38 100.07l332.93 0 0 -100.07 -219.97 0 0 -207.09 176.37 0 0 -100.07 -176.37 0 0 -186.29 219.97 0 0 -100.07 -332.93 0 0 693.6zm520.81 0l101.06 0 0 -519.21 167.45 519.21 114.94 0 0 -693.6 -102.05 0 0 434.99 -140.7 -434.99 -140.7 0 0 693.6zm698.17 0l111.97 0 0 -593.53 132.77 0 0 -100.07 -377.52 0 0 100.07 132.77 0 0 593.53zm643.69 0l114.94 0 -133.76 -693.6 -152.6 0 -132.77 693.6 105.03 0 23.78 -134.75 152.59 0 22.79 134.75zm-158.54 -232.86l59.44 -343.83 59.45 343.83 -118.9 0zm453.44 232.86l323.01 0 0 -100.07 -210.05 0 0 -593.53 -112.96 0 0 693.6zm1015.25 9.91c116.93,0 179.35,-67.38 179.35,-183.31l0 -82.24 -106.02 0 0 87.2c0,53.51 -26.75,80.26 -70.35,80.26 -43.6,0 -70.35,-26.75 -70.35,-80.26l0 -356.71c0,-53.51 26.75,-80.26 70.35,-80.26 43.6,0 70.35,26.75 70.35,80.26l0 66.39 106.02 0 0 -61.43c0,-115.94 -62.42,-183.31 -179.35,-183.31 -115.93,0 -180.33,67.37 -180.33,183.31l0 346.8c0,115.93 64.4,183.31 180.33,183.31zm373.18 -9.91l323.01 0 0 -100.07 -210.05 0 0 -593.53 -112.96 0 0 693.6zm504.96 0l112.96 0 0 -693.6 -112.96 0 0 693.6zm325.61 0l101.06 0 0 -519.21 167.45 519.21 114.94 0 0 -693.6 -102.05 0 0 434.99 -140.7 -434.99 -140.7 0 0 693.6zm596.12 0l112.96 0 0 -693.6 -112.96 0 0 693.6zm497.03 9.91c116.93,0 179.35,-67.38 179.35,-183.31l0 -82.24 -106.02 0 0 87.2c0,53.51 -26.75,80.26 -70.35,80.26 -43.6,0 -70.35,-26.75 -70.35,-80.26l0 -356.71c0,-53.51 26.75,-80.26 70.35,-80.26 43.6,0 70.35,26.75 70.35,80.26l0 66.39 106.02 0 0 -61.43c0,-115.94 -62.42,-183.31 -179.35,-183.31 -115.93,0 -180.33,67.37 -180.33,183.31l0 346.8c0,115.93 64.4,183.31 180.33,183.31z"/>
  </g>
 </g>
</svg>
