<?xml version="1.0" encoding="UTF-8"?>
<!DOCTYPE svg PUBLIC "-//W3C//DTD SVG 1.1//EN" "http://www.w3.org/Graphics/SVG/1.1/DTD/svg11.dtd">
<!-- Creator: CorelDRAW 2021.5 -->
<svg xmlns="http://www.w3.org/2000/svg" xml:space="preserve" width="208.814mm" height="44.6995mm" version="1.1" style="shape-rendering:geometricPrecision; text-rendering:geometricPrecision; image-rendering:optimizeQuality; fill-rule:evenodd; clip-rule:evenodd"
viewBox="0 0 20474.54 4382.86"
 xmlns:xlink="http://www.w3.org/1999/xlink"
 xmlns:xodm="http://www.corel.com/coreldraw/odm/2003">
 <defs>
  <style type="text/css">
   <![CDATA[
    .fil2 {fill:#2B4484}
    .fil3 {fill:#FEFEFE;fill-rule:nonzero}
    .fil0 {fill:#2B4484;fill-rule:nonzero}
    .fil1 {fill:#03BECD;fill-rule:nonzero}
   ]]>
  </style>
 </defs>
 <g id="Layer_x0020_1">
  <metadata id="CorelCorpID_0Corel-Layer"/>
  <path class="fil0" d="M5476.53 3049.36l276.99 0 0 -1468.27 328.46 0 0 -247.57 -933.91 0 0 247.57 328.46 0 0 1468.27zm721.72 0l279.44 0 0 -759.88 370.13 0 0 759.88 279.45 0 0 -1715.84 -279.45 0 0 708.39 -370.13 0 0 -708.39 -279.44 0 0 1715.84zm1121.26 0l823.6 0 0 -247.57 -544.17 0 0 -512.31 436.31 0 0 -247.57 -436.31 0 0 -460.82 544.17 0 0 -247.57 -823.6 0 0 1715.84zm1626.22 0l276.99 0 0 -1468.27 328.46 0 0 -247.57 -933.91 0 0 247.57 328.46 0 0 1468.27zm1148.22 24.51c296.6,0 460.83,-169.14 460.83,-460.83l0 -843.21c0,-294.15 -164.24,-460.82 -460.83,-460.82 -294.15,0 -458.37,166.68 -458.37,460.82l0 843.21c0,291.69 164.23,460.83 458.37,460.83zm0 -247.57c-115.2,0 -178.93,-66.18 -178.93,-198.55l0 -872.63c0,-134.81 63.73,-198.54 178.93,-198.54 115.21,0 181.4,63.73 181.4,198.54l0 872.63c0,132.37 -66.18,198.55 -181.4,198.55zm1064.88 247.57c296.6,0 460.83,-169.14 460.83,-460.83l0 -843.21c0,-294.15 -164.24,-460.82 -460.83,-460.82 -294.15,0 -458.37,166.68 -458.37,460.82l0 843.21c0,291.69 164.23,460.83 458.37,460.83zm0 -247.57c-115.2,0 -178.93,-66.18 -178.93,-198.55l0 -872.63c0,-134.81 63.73,-198.54 178.93,-198.54 115.21,0 181.4,63.73 181.4,198.54l0 872.63c0,132.37 -66.18,198.55 -181.4,198.55zm871.24 223.06l276.99 0 0 -1468.27 328.46 0 0 -247.57 -933.91 0 0 247.57 328.46 0 0 1468.27zm721.72 0l279.44 0 0 -759.88 370.13 0 0 759.88 279.45 0 0 -1715.84 -279.45 0 0 708.39 -370.13 0 0 -708.39 -279.44 0 0 1715.84zm1964.47 24.51c289.24,0 443.67,-166.69 443.67,-453.48l0 -203.45 -262.28 0 0 215.7c0,132.37 -66.18,198.55 -174.04,198.55 -107.85,0 -174.03,-66.18 -174.03,-198.55l0 -882.44c0,-132.36 66.18,-198.54 174.03,-198.54 107.86,0 174.04,66.18 174.04,198.54l0 164.24 262.28 0 0 -151.98c0,-286.79 -154.43,-453.47 -443.67,-453.47 -286.79,0 -446.12,166.68 -446.12,453.47l0 857.92c0,286.79 159.32,453.48 446.12,453.48zm1030.57 0c296.6,0 460.83,-169.14 460.83,-460.83l0 -843.21c0,-294.15 -164.24,-460.82 -460.83,-460.82 -294.15,0 -458.37,166.68 -458.37,460.82l0 843.21c0,291.69 164.23,460.83 458.37,460.83zm0 -247.57c-115.2,0 -178.93,-66.18 -178.93,-198.55l0 -872.63c0,-134.81 63.73,-198.54 178.93,-198.54 115.21,0 181.4,63.73 181.4,198.54l0 872.63c0,132.37 -66.18,198.55 -181.4,198.55zm628.57 223.06l279.44 0 0 -725.56 127.46 0c156.88,0 213.26,58.83 213.26,230.42l0 269.63c0,147.07 9.81,176.48 26.95,225.51l281.9 0c-26.96,-68.64 -31.87,-137.27 -31.87,-223.06l0 -254.92c0,-218.16 -58.83,-343.17 -208.36,-384.84l0 -7.35c139.72,-51.48 205.91,-164.24 205.91,-350.52l0 -83.34c0,-279.44 -139.72,-411.8 -448.58,-411.8l-446.12 0 0 1715.84zm279.44 -973.13l0 -495.14 161.78 0c122.56,0 174.04,58.83 174.04,193.64l0 98.05c0,147.07 -66.18,203.45 -203.46,203.45l-132.36 0zm795.25 973.13l250.02 0 0 -1284.44 414.25 1284.44 284.35 0 0 -1715.84 -252.48 0 0 1076.08 -348.07 -1076.08 -348.06 0 0 1715.84zm1140.87 0l823.6 0 0 -247.57 -544.17 0 0 -512.31 436.31 0 0 -247.57 -436.31 0 0 -460.82 544.17 0 0 -247.57 -823.6 0 0 1715.84zm954.58 0l279.44 0 0 -725.56 127.46 0c156.88,0 213.26,58.83 213.26,230.42l0 269.63c0,147.07 9.81,176.48 26.95,225.51l281.9 0c-26.96,-68.64 -31.87,-137.27 -31.87,-223.06l0 -254.92c0,-218.16 -58.83,-343.17 -208.36,-384.84l0 -7.35c139.72,-51.48 205.91,-164.24 205.91,-350.52l0 -83.34c0,-279.44 -139.72,-411.8 -448.58,-411.8l-446.12 0 0 1715.84zm279.44 -973.13l0 -495.14 161.78 0c122.56,0 174.04,58.83 174.04,193.64l0 98.05c0,147.07 -66.18,203.45 -203.46,203.45l-132.36 0z"/>
  <g id="_1613087296656">
   <g>
    <g>
     <path class="fil0" d="M3022.15 3010.67c-571.93,-245.16 -1028.27,-503.23 -1361.46,-712.07 -476.89,-298.9 -908.33,-573.71 -1350.09,-1065.26 -56.68,-63.08 -109.29,-125.09 -158.3,-185.56 -97.24,-150.53 -171.09,-319.2 -148.05,-498.88 38.72,-302.14 262.14,-485.83 528.95,-548.89 -116.05,50.58 -216.43,131.65 -290.47,254.36 -107.53,178.26 -108.94,383.3 -9.86,554.36 95.85,206.09 260.56,360.24 436.5,500.57 301.14,240.21 640.17,419.63 994.59,565.94 551.32,227.61 1124.9,376.73 1721.33,413.71 337.55,20.91 677.25,9.57 1000.02,-116.9 130.81,-51.24 303.52,-155.76 370.55,-344.19 81.78,-229.74 -29.99,-521.37 -279.62,-749.76 88.21,58.98 302.86,220.69 384.45,504.15 23.71,82.13 60.17,215.41 10.86,367.73 -48.53,149.87 -151.66,238.19 -219.63,288.57 -193.14,143.17 -418.95,203.4 -652.91,243.36 -54.89,9.39 -121.52,1.01 -167.19,39.55 -25.95,21.89 -34.84,49.82 -37.9,57.84 -94.57,249.05 -686.61,1807.99 -1167.41,1803.54 -64.52,-0.6 -112.03,-29.2 -128.9,-39.62 -328.13,-203.23 -50.14,-1068.52 -327.18,-1303.75 -26.18,-22.23 -106.33,-90.29 -203.25,-79.31 -56.38,6.39 -98.81,37.3 -128.88,64.44 -217.89,196.61 -163.91,533.72 -356.92,634.53 -87.24,45.54 -182.36,20.58 -223.08,9.89 -140.31,-36.77 -246.29,-156.63 -387.87,-467.65 -144.97,-318.43 -209.06,-584.89 -251.93,-749.02 -75.19,-287.74 -124,-582.31 -186.05,-873.58 254.44,210.34 550.85,429.12 892.14,640.06 630.06,389.41 1222.2,634.51 1697.57,791.83z"/>
     <path class="fil1" d="M3975.71 1883.66c-20.65,149.44 -57.09,168.52 -210.13,168.62 -146.16,0.1 -293.57,12.44 -438.06,-2.69 -259.18,-27.11 -519.69,-56.43 -774.1,-110.74 -441.28,-94.2 -860.3,-254.83 -1255.13,-476.15 -258.56,-144.94 -503.55,-308.51 -699.65,-533.13 -63.87,-73.16 -154.27,-138.08 -153.53,-251.73 1.49,-233.21 196.22,-473.72 476.72,-485.39 162.79,-6.7 264.66,34.02 623.04,201.78 171.45,80.18 415.17,191.29 715.71,318.19 -93.36,58.44 -209.21,118.96 -347.4,167.73 -339.05,119.64 -642.84,108.65 -827.85,85.43 374.89,98.1 656.41,57.24 818.81,16.59 349.65,-87.53 635.35,-293.14 759.32,-388.41 188.37,-144.6 370.29,-298.16 588.72,-398.41 302.78,-138.99 598.01,-32.21 719.27,296.25 68.69,185.86 96.44,379.5 90.27,570.52 -8.95,274.56 -48.32,548.76 -86.01,821.53z"/>
     <path class="fil0" d="M1861 3432.75c-20.97,-5.42 -29.57,224.51 -201.91,350.65 -190.73,139.62 -457.66,61.09 -483.51,53.12 -176.14,-54.44 -264.83,-171.68 -270.96,-164.67 -8.81,10.06 153.79,276.02 425.05,308.17 154.47,18.22 329.65,-41.05 435.68,-170.06 130.03,-158.22 115.56,-372.1 95.64,-377.21z"/>
    </g>
    <path class="fil2" d="M949.54 3602.76c18.11,16.74 -38.52,23.37 -69.48,56.88 -30.96,33.51 -24.53,81.21 -42.64,64.48 -18.11,-16.74 -7.7,-57.47 23.27,-90.98 30.96,-33.5 70.73,-47.11 88.85,-30.38z"/>
    <path class="fil2" d="M1789.84 3381.2c-9.15,22.9 44.82,4.52 87.19,21.43 42.38,16.92 57.1,62.75 66.24,39.85 9.14,-22.9 -17.79,-55.17 -60.15,-72.1 -42.38,-16.92 -84.14,-12.08 -93.28,10.82z"/>
   </g>
   <g>
    <path class="fil3" d="M3542.31 705.92l-46.04 180.4c-5.35,20.99 -21.72,37.4 -42.73,42.75l-180.4 46.02 180.4 46.02c21.01,5.35 37.38,21.76 42.73,42.75l46.04 180.4 46.05 -180.4c5.35,-20.99 21.72,-37.4 42.67,-42.75l180.4 -46.02 -180.4 -46.02c-20.95,-5.35 -37.32,-21.76 -42.67,-42.75l-46.05 -180.4z"/>
    <path class="fil3" d="M3159.39 476.11l-32.52 127.57c-3.77,14.87 -15.39,26.48 -30.24,30.24l-127.57 32.53 127.57 32.6c14.85,3.75 26.46,15.35 30.24,30.23l32.52 127.57 32.58 -127.57c3.77,-14.87 15.4,-26.48 30.24,-30.23l127.57 -32.6 -127.57 -32.53c-14.84,-3.76 -26.46,-15.36 -30.24,-30.24l-32.58 -127.57z"/>
    <path class="fil3" d="M3496.38 1395.08l-19.43 76.24c-2.29,8.87 -9.23,15.79 -18.05,18.05l-76.27 19.45 76.27 19.46c8.82,2.26 15.76,9.19 18.05,18.05l19.43 76.24 19.47 -76.24c2.25,-8.86 9.18,-15.79 18.05,-18.05l76.23 -19.46 -76.23 -19.45c-8.87,-2.26 -15.81,-9.18 -18.05,-18.05l-19.47 -76.24z"/>
    <path class="fil3" d="M3766.31 1219.5l-10.55 41.43c-1.23,4.86 -5,8.62 -9.84,9.81l-41.41 10.56 41.41 10.6c4.84,1.24 8.62,5 9.84,9.81l10.55 41.42 10.55 -41.42c1.24,-4.81 5,-8.58 9.84,-9.81l41.41 -10.6 -41.41 -10.56c-4.84,-1.19 -8.61,-4.94 -9.84,-9.81l-10.55 -41.43z"/>
   </g>
  </g>
 </g>
</svg>
